# xmcd
# Track frame offsets:
# 205
# 19287
# 36112
# 48495
# 63222
# 75182
# 90447
# 108072
# 121727
# 134002
# 145325
# 156207
# 165432
# 174917
# 191775
# 201007
#
# Disc length: 2848 seconds
# Revision: 3
# Processed by: cddbd v1.4PL0 Copyright (c) Steve Scherf et al.
# Submitted via: VisiTrax 2.9.7.197 - For more info visit www.synapsa.com
#
DISCID=c70b1e10
DTITLE=Big Jay McNeely and His Band - Swingin' - Golden Classics
DYEAR=2000
DGENRE=Blues
TTITLE0=Flying Home
TTITLE1=There Is Something On Your Mind: (Uncut Version)
TTITLE2=Back...Shack...Track
TTITLE3=I Got The Message
TTITLE4=Psycho Serenade
TTITLE5=Minnie
TTITLE6=My Darling, Dear
TTITLE7=Oh No, Daddy-O
TTITLE8=Blue Couch Boogie
TTITLE9=I Love You, Oh Darling
TTITLE10=Oh, What A Fool
TTITLE11=Before Midnight
TTITLE12=After Midnight
TTITLE13=Havana Hop
TTITLE14=Annie Lou
TTITLE15=Sungi Mungi
EXTD=Collectables, COL-CD-5133
EXTT0=
EXTT1=
EXTT2=
EXTT3=
EXTT4=
EXTT5=
EXTT6=
EXTT7=
EXTT8=
EXTT9=
EXTT10=
EXTT11=
EXTT12=
EXTT13=
EXTT14=
EXTT15=
PLAYORDER=
